<svg width="185" height="150" viewBox="0 0 185 150" fill="none" xmlns="http://www.w3.org/2000/svg">
<path d="M94 150C135.421 150 169 116.421 169 75C169 33.5786 135.421 0 94 0C52.5786 0 19 33.5786 19 75C19 116.421 52.5786 150 94 150Z" fill="url(#paint0_linear_105_246)"/>
<g filter="url(#filter0_d_105_246)">
<circle cx="125.094" cy="83.5312" r="54.4688" fill="white"/>
<circle cx="59.4688" cy="66.4688" r="54.4688" fill="white"/>
<g clip-path="url(#clip0_105_246)">
<path d="M107.375 66.4687C107.375 40.0541 85.8834 18.5625 59.4687 18.5625C33.0541 18.5625 11.5625 40.0541 11.5625 66.4687C11.5625 80.4208 17.5621 92.9966 27.112 101.759L27.0667 101.799L28.6206 103.109C28.7216 103.195 28.8314 103.264 28.9324 103.348C29.7582 104.032 30.6135 104.682 31.4845 105.311C31.7667 105.515 32.049 105.719 32.3364 105.917C33.2666 106.558 34.2213 107.166 35.1968 107.743C35.4094 107.868 35.6236 107.99 35.8379 108.112C36.9058 108.72 37.9963 109.293 39.1129 109.82C39.1948 109.858 39.2784 109.893 39.3603 109.931C42.9994 111.623 46.8842 112.865 50.9467 113.598C51.0529 113.617 51.1592 113.636 51.2672 113.656C52.5284 113.873 53.8036 114.047 55.0945 114.164C55.2513 114.178 55.408 114.187 55.5666 114.201C56.8522 114.307 58.1518 114.375 59.4687 114.375C60.7735 114.375 62.0609 114.307 63.3396 114.204C63.5016 114.19 63.6636 114.182 63.8256 114.168C65.106 114.051 66.3707 113.882 67.6198 113.668C67.7278 113.649 67.8375 113.629 67.9455 113.608C71.947 112.891 75.776 111.677 79.3681 110.029C79.5005 109.968 79.6347 109.91 79.7671 109.847C80.8419 109.342 81.8924 108.797 82.9219 108.217C83.178 108.072 83.4323 107.926 83.6867 107.776C84.6239 107.224 85.5454 106.647 86.4408 106.034C86.7631 105.815 87.0784 105.583 87.3972 105.353C88.162 104.802 88.9128 104.235 89.6427 103.641C89.8047 103.51 89.9789 103.397 90.1375 103.262L91.7314 101.932L91.6844 101.891C101.318 93.1255 107.375 80.4922 107.375 66.4687ZM15.0466 66.4687C15.0466 41.9738 34.9738 22.0466 59.4687 22.0466C83.9636 22.0466 103.891 41.9738 103.891 66.4687C103.891 79.6682 98.0986 91.535 88.9285 99.6774C88.4163 99.3237 87.9007 99.0067 87.3728 98.7419L72.6229 91.3678C71.299 90.7058 70.4767 89.3749 70.4767 87.8959V82.7447C70.8182 82.3231 71.1788 81.8458 71.5516 81.3214C73.4609 78.6247 74.9921 75.6249 76.1088 72.3969C78.3159 71.3482 79.7409 69.1498 79.7409 66.6673V60.4918C79.7409 58.9814 79.187 57.5164 78.1957 56.3649V48.2348C78.2863 47.3306 78.6069 42.2282 74.9155 38.0194C71.7049 34.3541 66.5084 32.4989 59.4687 32.4989C52.4291 32.4989 47.2326 34.3541 44.022 38.0177C40.3306 42.2264 40.6512 47.3289 40.7418 48.233V56.3631C39.7523 57.5146 39.1966 58.9797 39.1966 60.49V66.6656C39.1966 68.5836 40.0571 70.3727 41.5309 71.5799C42.942 77.1074 45.846 81.2918 46.9191 82.7098V87.7513C46.9191 89.1728 46.1438 90.4794 44.8948 91.1622L31.1204 98.6757C30.6814 98.9143 30.2459 99.1931 29.8104 99.5049C20.7535 91.3661 15.0466 79.5724 15.0466 66.4687ZM85.528 102.411C84.9183 102.853 84.2981 103.282 83.6692 103.691C83.3801 103.879 83.0926 104.067 82.7982 104.25C81.976 104.759 81.1398 105.243 80.2862 105.696C80.098 105.795 79.9082 105.889 79.7183 105.987C77.7567 106.992 75.7273 107.856 73.642 108.558C73.5689 108.583 73.4957 108.609 73.4208 108.633C72.3285 108.996 71.2223 109.318 70.1039 109.595C70.1004 109.595 70.097 109.597 70.0935 109.597C68.9646 109.875 67.8219 110.107 66.6721 110.297C66.6407 110.302 66.6094 110.309 66.578 110.314C65.4962 110.49 64.4057 110.617 63.3117 110.713C63.1183 110.731 62.925 110.743 62.7299 110.757C61.648 110.839 60.561 110.891 59.4687 110.891C58.3643 110.891 57.2633 110.837 56.1676 110.755C55.9777 110.741 55.7878 110.729 55.5997 110.711C54.4952 110.614 53.396 110.483 52.3072 110.306C52.2584 110.297 52.2096 110.288 52.1609 110.279C49.8579 109.894 47.5915 109.328 45.3843 108.588C45.3164 108.565 45.2467 108.541 45.1787 108.518C44.083 108.145 42.9994 107.733 41.9351 107.276C41.9281 107.273 41.9194 107.269 41.9124 107.266C40.9055 106.832 39.9178 106.351 38.9422 105.844C38.8151 105.778 38.6861 105.715 38.5607 105.647C37.6705 105.172 36.7995 104.658 35.9407 104.121C35.6863 103.961 35.4337 103.799 35.1829 103.635C34.392 103.118 33.6116 102.58 32.852 102.01C32.7736 101.951 32.6987 101.888 32.6203 101.829C32.6761 101.797 32.7318 101.766 32.7876 101.735L46.5619 94.2213C48.9311 92.9287 50.4031 90.4497 50.4031 87.7513L50.4014 81.4765L50.0007 80.9922C49.9624 80.9486 46.1961 76.367 44.7728 70.1636L44.6143 69.4738L44.0203 69.0888C43.1824 68.547 42.6807 67.6411 42.6807 66.6639V60.4883C42.6807 59.6783 43.0238 58.9239 43.651 58.3578L44.2258 57.8387V48.1355L44.2102 47.9073C44.2049 47.8654 43.691 43.6758 46.6421 40.3119C49.1611 37.441 53.4779 35.983 59.4687 35.983C65.437 35.983 69.7398 37.4288 72.2658 40.2788C75.2134 43.6079 74.7308 47.8759 74.7273 47.9107L74.7116 57.8421L75.2865 58.3613C75.9119 58.9257 76.2568 59.6817 76.2568 60.4918V66.6673C76.2568 67.9094 75.4119 69.0365 74.1995 69.4111L73.3337 69.6776L73.055 70.5399C72.0271 73.7331 70.5638 76.6824 68.7068 79.3059C68.2504 79.9504 67.8062 80.5218 67.4247 80.9591L66.9926 81.4521V87.8959C66.9926 90.7041 68.5535 93.23 71.0655 94.4843L85.8154 101.858C85.9095 101.905 86.0018 101.954 86.0942 102.003C85.9078 102.144 85.7161 102.275 85.528 102.411Z" fill="#4FA26F"/>
</g>
<circle cx="125.094" cy="83.5312" r="46.5937" fill="white"/>
<path d="M125.094 36.4481C99.1311 36.4481 78.0105 57.5708 78.0105 83.5321C78.0105 97.1882 83.8608 109.5 93.1798 118.109L93.0566 118.277L94.2636 119.311C100.948 125.033 109.082 128.699 117.687 130.029C118.297 130.125 118.911 130.203 119.528 130.275C120.197 130.352 120.866 130.421 121.541 130.467C122.532 130.541 123.53 130.589 124.537 130.601C124.643 130.601 124.748 130.614 124.854 130.614C124.883 130.614 124.914 130.611 124.943 130.611C124.994 130.611 125.044 130.614 125.095 130.614C151.056 130.616 172.177 109.493 172.177 83.5321C172.177 57.5708 151.056 36.4481 125.094 36.4481ZM124.946 127.188C124.792 127.188 124.642 127.178 124.489 127.176C123.671 127.17 122.856 127.127 122.043 127.074C112.972 126.444 104.658 123.035 97.9464 117.688C98.5987 117.071 99.3195 116.549 100.114 116.147L115.757 109.433C117.023 108.803 117.797 107.403 118.545 105.901C119.014 104.956 118.961 103.855 118.403 102.955C117.843 102.049 116.874 101.51 115.812 101.51L104.945 101.518C104.908 101.515 101.187 101.138 98.3881 99.9362C97.8608 99.7102 97.6399 99.5338 97.5765 99.5235C97.6022 99.4516 97.6639 99.3112 97.818 99.0938C101.694 93.5738 108.233 82.5836 108.457 70.9992C108.471 70.3503 108.976 55.0985 124.434 54.9718C133.62 55.0471 137.964 60.4318 139.991 64.9365C141.003 67.1845 141.598 69.8657 141.814 73.1291C142.482 83.2308 147.122 92.7606 150.897 98.9739C151.092 99.2958 151.15 99.6896 151.061 100.054C150.977 100.392 150.774 100.672 150.488 100.844C148.711 101.905 146.398 101.54 146.384 101.535L134.978 101.51C133.757 101.51 132.701 102.28 132.288 103.472C131.872 104.674 132.24 105.992 133.206 106.754C134.421 107.714 134.904 108.011 135.096 108.113L148.14 116.005C149.26 116.616 150.245 117.451 151.037 118.46C143.466 124.16 134.481 127.168 124.946 127.188ZM153.772 116.409C152.688 115.013 151.349 113.856 149.846 113.038L136.801 105.146C136.774 105.131 136.681 105.078 136.476 104.934H145.961C146.707 105.038 149.685 105.314 152.243 103.782C153.316 103.141 154.078 102.109 154.383 100.88C154.693 99.6348 154.489 98.2925 153.823 97.1967C150.248 91.3104 145.853 82.3165 145.232 72.9031C144.987 69.2271 144.295 66.1607 143.114 63.5325C140.676 58.1153 135.462 51.6382 124.434 51.5475C105.663 51.7016 105.036 70.7338 105.033 70.929C104.819 82.0066 97.9549 92.9386 95.0152 97.1248C94.2157 98.2634 93.9606 99.3712 94.255 100.414C94.5769 101.544 95.4861 102.419 97.0372 103.085C100.319 104.494 104.437 104.91 104.778 104.936H115.194C114.908 105.49 114.518 106.194 114.318 106.328L98.7151 113.019L98.6244 113.06C97.4036 113.669 96.3147 114.481 95.3474 115.448C86.7971 107.473 81.4347 96.1198 81.4347 83.5321C81.4347 59.4576 101.02 39.8724 125.094 39.8724C149.168 39.8724 168.753 59.4576 168.753 83.5321C168.753 96.6351 162.942 108.399 153.772 116.409Z" fill="#4FA26F"/>
</g>
<defs>
<filter id="filter0_d_105_246" x="0" y="7" width="184.562" height="136" filterUnits="userSpaceOnUse" color-interpolation-filters="sRGB">
<feFlood flood-opacity="0" result="BackgroundImageFix"/>
<feColorMatrix in="SourceAlpha" type="matrix" values="0 0 0 0 0 0 0 0 0 0 0 0 0 0 0 0 0 0 127 0" result="hardAlpha"/>
<feOffset/>
<feGaussianBlur stdDeviation="2.5"/>
<feComposite in2="hardAlpha" operator="out"/>
<feColorMatrix type="matrix" values="0 0 0 0 0 0 0 0 0 0 0 0 0 0 0 0 0 0 0.1 0"/>
<feBlend mode="normal" in2="BackgroundImageFix" result="effect1_dropShadow_105_246"/>
<feBlend mode="normal" in="SourceGraphic" in2="effect1_dropShadow_105_246" result="shape"/>
</filter>
<linearGradient id="paint0_linear_105_246" x1="94" y1="0" x2="94" y2="150" gradientUnits="userSpaceOnUse">
<stop stop-color="#ADE3C2"/>
<stop offset="1" stop-color="#A6DFBC"/>
</linearGradient>
<clipPath id="clip0_105_246">
<rect width="95.8125" height="95.8125" fill="white" transform="translate(11.5625 18.5625)"/>
</clipPath>
</defs>
</svg>
